<svg xmlns="http://www.w3.org/2000/svg">
  <g id="generic">
     <path d="M9.745,12.001 C9.745,12.001 2.254,12.001 2.254,12.001 C1.009,12.001 0,10.992 0,9.74699999999999 C0,9.74699999999999 0,2.255 0,2.255 C0,1.00999999999999 1.009,0 2.254,0 C2.254,0 9.745,0 9.745,0 C10.99,0 11.999,1.00999999999999 11.999,2.255 C11.999,2.255 11.999,9.74699999999999 11.999,9.74699999999999 C11.999,10.992 10.99,12.001 9.745,12.001 ZM7.987,5.34199999999998 C7.987,4.58499999999998 7.376,3.971 6.622,3.971 C6.622,3.971 5.342,3.971 5.342,3.971 C4.588,3.971 3.977,4.58499999999998 3.977,5.34199999999998 C3.977,5.34199999999998 3.977,6.62799999999999 3.977,6.62799999999999 C3.977,7.38499999999999 4.588,7.999 5.342,7.999 C5.342,7.999 6.622,7.999 6.622,7.999 C7.376,7.999 7.987,7.38499999999999 7.987,6.62799999999999 C7.987,6.62799999999999 7.987,5.34199999999998 7.987,5.34199999999998 Z "/>
  </g>
  <g id="root">
    <path d="M6.98899999999999,12.004 C6.98899999999999,12.004 6.98899999999999,6.989 6.98899999999999,6.989 C6.98899999999999,6.989 12.005,6.989 12.005,6.989 C12.005,6.989 12.005,12.004 12.005,12.004 C12.005,12.004 6.98899999999999,12.004 6.98899999999999,12.004 ZM6.98899999999999,0 C6.98899999999999,0 12.005,0 12.005,0 C12.005,0 12.005,5.01500000000001 12.005,5.01500000000001 C12.005,5.01500000000001 6.98899999999999,5.01500000000001 6.98899999999999,5.01500000000001 C6.98899999999999,5.01500000000001 6.98899999999999,0 6.98899999999999,0 ZM0,6.989 C0,6.989 5.01599999999999,6.989 5.01599999999999,6.989 C5.01599999999999,6.989 5.01599999999999,12.004 5.01599999999999,12.004 C5.01599999999999,12.004 0,12.004 0,12.004 C0,12.004 0,6.989 0,6.989 ZM0,0 C0,0 5.01599999999999,0 5.01599999999999,0 C5.01599999999999,0 5.01599999999999,5.01500000000001 5.01599999999999,5.01500000000001 C5.01599999999999,5.01500000000001 0,5.01500000000001 0,5.01500000000001 C0,5.01500000000001 0,0 0,0 Z "/>
  </g>
  <g id="perspective">
    <path d="M12.004,11.006 C12.004,11.006 0,11.006 0,11.006 C0,11.006 5.926,0 5.926,0 C5.926,0 12.004,11.006 12.004,11.006 Z "/>
  </g>
  <g id="objective">
    <path d="M6,0 C9.31399999999999,0 12,2.239 12,5 C12,7.762 9.31399999999999,10 6,10 C2.68600000000001,10 0,7.762 0,5 C0,2.239 2.68600000000001,0 6,0 Z "/>
  </g>
  <g id="find">
    <path d="M13.002,11.936 C13.003,12.21 12.903,12.488 12.693,12.698 C12.486,12.905 12.209,13.006 11.938,13.006 C11.937,13.006 11.936,13.006 11.934,13.006 C11.622,13.006 11.31,12.88 11.07,12.641 C11.07,12.641 7.592,9.15899999999999 7.592,9.15899999999999 C6.828,9.63999999999999 5.923,9.91899999999998 4.955,9.91899999999998 C2.21900000000001,9.91899999999998 0,7.69899999999998 0,4.96099999999998 C0,2.22199999999998 2.21900000000001,0 4.955,0 C7.69200000000001,0 9.91000000000001,2.22199999999998 9.91000000000001,4.96099999999998 C9.91000000000001,5.92399999999998 9.634,6.82599999999999 9.158,7.58699999999999 C9.158,7.58699999999999 12.639,11.07 12.639,11.07 C12.878,11.31 13.002,11.624 13.002,11.936 ZM4.955,2.19399999999999 C3.432,2.19699999999997 2.19500000000001,3.43699999999998 2.19200000000001,4.96099999999998 C2.19500000000001,6.48399999999998 3.432,7.72399999999999 4.955,7.72699999999998 C6.47800000000001,7.72399999999999 7.71600000000001,6.48399999999998 7.718,4.96099999999998 C7.71600000000001,3.43699999999998 6.47800000000001,2.19699999999997 4.955,2.19399999999999 Z "/>
  </g>
  <g id="collapsed">
    <path d="M0,8.99900000000001 C0,8.99900000000001 0,0 0,0 C0,0 5.999,4.506 5.999,4.506 C5.999,4.506 0,8.99900000000001 0,8.99900000000001 Z "/>
  </g>
  <g id="expanded">
    <path d="M5.999,0 C5.999,0 5.999,8.99900000000001 5.999,8.99900000000001 C5.999,8.99900000000001 0,4.49300000000001 0,4.49300000000001 C0,4.49300000000001 5.999,0 5.999,0 Z "/>
  </g>
</svg>
